<svg width="20" height="18" viewBox="0 0 20 18" fill="none" xmlns="http://www.w3.org/2000/svg">
<path d="M17.03 8.16807H0.869498C0.638893 8.16807 0.417733 8.25586 0.25467 8.41212C0.0916077 8.56838 0 8.78032 0 9.0013C0 9.22229 0.0916077 9.43422 0.25467 9.59048C0.417733 9.74674 0.638893 9.83453 0.869498 9.83453H17.03L10.6879 15.9104C10.5246 16.0669 10.4329 16.2791 10.4329 16.5004C10.4329 16.7216 10.5246 16.9338 10.6879 17.0903C10.8511 17.2467 11.0726 17.3346 11.3035 17.3346C11.5344 17.3346 11.7558 17.2467 11.9191 17.0903L19.7446 9.59123C19.8255 9.51383 19.8898 9.42188 19.9336 9.32065C19.9774 9.21942 20 9.1109 20 9.0013C20 8.8917 19.9774 8.78318 19.9336 8.68195C19.8898 8.58072 19.8255 8.48878 19.7446 8.41138L11.9191 0.912324C11.7558 0.755866 11.5344 0.667969 11.3035 0.667969C11.0726 0.667969 10.8511 0.755866 10.6879 0.912324C10.5246 1.06878 10.4329 1.28098 10.4329 1.50225C10.4329 1.72351 10.5246 1.93572 10.6879 2.09218L17.03 8.16807Z" fill="white"/>
</svg>
