<svg width="16" height="17" viewBox="0 0 16 17" fill="none" xmlns="http://www.w3.org/2000/svg">
<path d="M11.1425 8.52373L5.36393 12.4237C5.29724 12.4686 5.2192 12.495 5.13826 12.4998C5.05732 12.5047 4.97656 12.4879 4.90473 12.4512C4.83289 12.4145 4.77272 12.3593 4.73073 12.2917C4.68874 12.2241 4.66653 12.1465 4.6665 12.0675V4.2676C4.66645 4.18851 4.6886 4.11091 4.73056 4.04321C4.77252 3.97552 4.83268 3.92031 4.90453 3.88357C4.97638 3.84683 5.05717 3.82996 5.13815 3.83479C5.21913 3.83962 5.29721 3.86597 5.36393 3.91097L11.1425 7.81091C11.2014 7.85096 11.2494 7.90428 11.2826 7.96633C11.3158 8.02838 11.3332 8.09733 11.3332 8.16732C11.3332 8.2373 11.3158 8.30625 11.2826 8.3683C11.2494 8.43036 11.2014 8.48368 11.1425 8.52373Z" fill="white"/>
</svg>
