<svg width="16" height="17" viewBox="0 0 16 17" fill="none" xmlns="http://www.w3.org/2000/svg">
<path d="M8.35625 11.3093L12.2562 5.53076C12.3012 5.46407 12.3275 5.38603 12.3324 5.30509C12.3372 5.22415 12.3204 5.14339 12.2837 5.07156C12.247 4.99972 12.1919 4.93955 12.1242 4.89756C12.0566 4.85557 11.979 4.83336 11.9 4.83333L4.10012 4.83333C4.02103 4.83328 3.94343 4.85543 3.87573 4.89739C3.80804 4.93935 3.75283 4.99951 3.71609 5.07136C3.67935 5.14321 3.66248 5.224 3.66731 5.30498C3.67214 5.38596 3.69849 5.46404 3.74349 5.53076L7.64343 11.3093C7.68348 11.3682 7.7368 11.4163 7.79885 11.4495C7.8609 11.4827 7.92985 11.5 7.99984 11.5C8.06982 11.5 8.13877 11.4827 8.20082 11.4495C8.26288 11.4163 8.3162 11.3682 8.35625 11.3093Z" fill="white"/>
</svg>
