<svg width="32" height="32" viewBox="0 0 32 32" fill="none" xmlns="http://www.w3.org/2000/svg">
<rect width="32" height="32" rx="16" fill="#296298"/>
<path d="M20.7426 15.5065L12.9415 10.1066C12.8515 10.0443 12.7461 10.0078 12.6369 10.0011C12.5276 9.99441 12.4186 10.0177 12.3216 10.0685C12.2246 10.1193 12.1434 10.1957 12.0867 10.2893C12.03 10.383 12 10.4903 12 10.5998L12 21.3996C11.9999 21.5091 12.0298 21.6166 12.0865 21.7103C12.1431 21.804 12.2243 21.8805 12.3213 21.9313C12.4183 21.9822 12.5274 22.0056 12.6367 21.9989C12.746 21.9922 12.8515 21.9557 12.9415 21.8934L20.7426 16.4935C20.8221 16.438 20.887 16.3642 20.9318 16.2783C20.9766 16.1924 21 16.0969 21 16C21 15.9031 20.9766 15.8076 20.9318 15.7217C20.887 15.6358 20.8221 15.562 20.7426 15.5065Z" fill="white"/>
</svg>
