<svg width="36" height="24" viewBox="0 0 36 24" fill="none" xmlns="http://www.w3.org/2000/svg">
<path d="M11.25 0.75C8.26631 0.75 5.40483 1.93526 3.29505 4.04505C1.18526 6.15483 0 9.01631 0 12C0 14.9837 1.18526 17.8452 3.29505 19.955C5.40483 22.0647 8.26631 23.25 11.25 23.25H24.75C27.7337 23.25 30.5952 22.0647 32.705 19.955C34.8147 17.8452 36 14.9837 36 12C36 9.01631 34.8147 6.15483 32.705 4.04505C30.5952 1.93526 27.7337 0.75 24.75 0.75H11.25ZM24.75 21C22.3631 21 20.0739 20.0518 18.386 18.364C16.6982 16.6761 15.75 14.3869 15.75 12C15.75 9.61305 16.6982 7.32387 18.386 5.63604C20.0739 3.94821 22.3631 3 24.75 3C27.1369 3 29.4261 3.94821 31.114 5.63604C32.8018 7.32387 33.75 9.61305 33.75 12C33.75 14.3869 32.8018 16.6761 31.114 18.364C29.4261 20.0518 27.1369 21 24.75 21Z" fill="#296298"/>
</svg>
