<svg width="36" height="24" viewBox="0 0 36 24" fill="none" xmlns="http://www.w3.org/2000/svg">
<path d="M24.75 3C27.1369 3 29.4261 3.94821 31.114 5.63604C32.8018 7.32387 33.75 9.61305 33.75 12C33.75 14.3869 32.8018 16.6761 31.114 18.364C29.4261 20.0518 27.1369 21 24.75 21H18C19.3982 19.9531 20.533 18.5944 21.3142 17.0321C22.0954 15.4698 22.5014 13.7468 22.5 12C22.5014 10.2532 22.0954 8.53024 21.3142 6.96789C20.533 5.40555 19.3982 4.04693 18 3H24.75ZM11.25 21C8.86305 21 6.57387 20.0518 4.88604 18.364C3.19821 16.6761 2.25 14.3869 2.25 12C2.25 9.61305 3.19821 7.32387 4.88604 5.63604C6.57387 3.94821 8.86305 3 11.25 3C13.6369 3 15.9261 3.94821 17.614 5.63604C19.3018 7.32387 20.25 9.61305 20.25 12C20.25 14.3869 19.3018 16.6761 17.614 18.364C15.9261 20.0518 13.6369 21 11.25 21ZM0 12C0 14.9837 1.18526 17.8452 3.29505 19.955C5.40483 22.0647 8.26631 23.25 11.25 23.25H24.75C27.7337 23.25 30.5952 22.0647 32.705 19.955C34.8147 17.8452 36 14.9837 36 12C36 9.01631 34.8147 6.15483 32.705 4.04505C30.5952 1.93526 27.7337 0.75 24.75 0.75H11.25C8.26631 0.75 5.40483 1.93526 3.29505 4.04505C1.18526 6.15483 0 9.01631 0 12H0Z" fill="#A9A9A9"/>
</svg>
