<svg width="16" height="16" viewBox="0 0 16 16" fill="none" xmlns="http://www.w3.org/2000/svg">
<path d="M9.14452 1.29688L11.6339 2.25288L11.1559 3.49754L10.5332 3.25821L10.0359 4.55488C10.5548 4.86279 10.9979 5.28337 11.3325 5.78554L12.6012 5.22088L12.3299 4.61154L13.5479 4.06954L14.6325 6.50554L13.4145 7.04754L13.1432 6.43888L11.8752 7.00354C12.0248 7.58803 12.0407 8.19871 11.9219 8.79021L13.2179 9.28754L13.4565 8.66554L14.7019 9.14354L13.7459 11.6329L12.5012 11.1549L12.7399 10.5329L11.4439 10.0349C11.1359 10.5538 10.7154 10.997 10.2132 11.3315L10.7779 12.6002L11.3872 12.3289L11.9292 13.5469L9.49319 14.6315L8.95118 13.4135L9.55985 13.1422L8.99518 11.8742C8.41044 12.0237 7.79951 12.0394 7.20785 11.9202L6.71052 13.2169L7.33318 13.4555L6.85519 14.7009L4.36585 13.7449L4.84385 12.5002L5.46519 12.7389L5.96385 11.4429C5.44484 11.1348 5.00152 10.7143 4.66652 10.2122L3.39785 10.7769L3.66919 11.3862L2.45118 11.9282L1.36652 9.49221L2.58452 8.95021L2.85518 9.55954L4.12385 8.99421C3.97555 8.40952 3.95983 7.79908 4.07785 7.20754L2.78118 6.71021L2.54318 7.33221L1.29785 6.85421L2.25385 4.36554L3.49852 4.84354L3.25918 5.46554L4.55585 5.96354C4.86372 5.44419 5.28429 5.00061 5.78652 4.66554L5.22185 3.39688L4.61252 3.66821L4.07052 2.45021L6.50652 1.36621L7.04852 2.58421L6.43985 2.85554L7.00452 4.12354C7.589 3.97396 8.19969 3.95801 8.79118 4.07688L9.28785 2.78021L8.66652 2.54221L9.14452 1.29688ZM6.75585 8.82021C6.66745 8.97342 6.64352 9.15547 6.68934 9.32631C6.73517 9.49716 6.84698 9.6428 7.00018 9.73121C7.15339 9.81961 7.33544 9.84354 7.50629 9.79772C7.67713 9.75189 7.82278 9.64008 7.91119 9.48688C7.95496 9.41101 7.98336 9.32728 7.99477 9.24044C8.00619 9.1536 8.00038 9.06537 7.97769 8.98077C7.955 8.89618 7.91588 8.81688 7.86254 8.74741C7.80921 8.67794 7.74271 8.61965 7.66685 8.57588C7.59099 8.5321 7.50725 8.5037 7.42041 8.49229C7.33358 8.48088 7.24534 8.48668 7.16075 8.50937C7.07615 8.53206 6.99686 8.57118 6.92738 8.62452C6.85791 8.67785 6.79963 8.74435 6.75585 8.82021ZM9.33319 7.33221C9.15637 7.33221 8.98681 7.40245 8.86178 7.52747C8.73676 7.6525 8.66652 7.82206 8.66652 7.99887C8.66652 8.17569 8.73676 8.34526 8.86178 8.47028C8.98681 8.5953 9.15637 8.66554 9.33319 8.66554C9.51 8.66554 9.67957 8.5953 9.80459 8.47028C9.92961 8.34526 9.99985 8.17569 9.99985 7.99887C9.99985 7.82206 9.92961 7.6525 9.80459 7.52747C9.67957 7.40245 9.51 7.33221 9.33319 7.33221ZM6.99985 6.26688C6.92404 6.31069 6.85759 6.36901 6.80432 6.43851C6.75104 6.50801 6.71197 6.58732 6.68934 6.67191C6.66672 6.7565 6.66097 6.84473 6.67244 6.93154C6.68391 7.01835 6.71237 7.10206 6.75619 7.17788C6.8 7.25369 6.85833 7.32014 6.92782 7.37341C6.99732 7.42669 7.07663 7.46576 7.16122 7.48838C7.24581 7.51101 7.33404 7.51675 7.42085 7.50528C7.50766 7.49381 7.59137 7.46536 7.66719 7.42154C7.8203 7.33305 7.932 7.18735 7.97769 7.01651C8.02339 6.84566 7.99935 6.66366 7.91085 6.51054C7.82236 6.35742 7.67666 6.24573 7.50582 6.20003C7.33497 6.15434 7.15297 6.17838 6.99985 6.26688Z" fill="#296298"/>
</svg>
